<?xml version="1.0" standalone="no"?>
<!DOCTYPE svg PUBLIC "-//W3C//DTD SVG 20010904//EN"
 "http://www.w3.org/TR/2001/REC-SVG-20010904/DTD/svg10.dtd">
<svg version="1.0" xmlns="http://www.w3.org/2000/svg"
 width="640.000000pt" height="1280.000000pt" viewBox="0 0 640.000000 1280.000000"
 preserveAspectRatio="xMidYMid meet">
<g transform="translate(0.000000,1280.000000) scale(0.100000,-0.100000)"
fill="#000000" stroke="none">
<path d="M4635 12793 c-16 -2 -58 -13 -93 -23 -55 -17 -76 -18 -165 -10 -271
24 -796 31 -947 12 -113 -14 -210 -15 -226 -1 -14 12 -823 4 -1009 -10 -71 -6
-241 -10 -376 -11 -185 0 -249 -3 -256 -12 -5 -7 -20 -59 -32 -115 -17 -79
-21 -118 -16 -171 8 -78 -10 -275 -29 -312 -7 -14 -19 -35 -26 -47 -20 -32 -1
-48 58 -48 41 0 47 -3 50 -22 2 -13 -11 -52 -28 -87 -23 -46 -33 -82 -35 -127
-3 -35 -7 -86 -10 -114 -3 -28 -1 -69 6 -92 11 -40 9 -49 -30 -147 -32 -83
-39 -110 -32 -130 6 -13 15 -27 21 -31 6 -4 8 -15 5 -25 -3 -11 3 -39 15 -64
40 -90 41 -91 25 -230 -15 -130 -15 -134 6 -212 20 -72 21 -90 13 -204 -5 -69
-8 -249 -7 -400 2 -219 5 -284 18 -319 14 -41 14 -46 -2 -64 -16 -17 -18 -49
-22 -301 -2 -154 -3 -326 -2 -381 2 -90 0 -103 -18 -119 -24 -22 -26 -46 -7
-84 16 -33 30 -159 20 -196 -5 -21 -12 -26 -35 -26 -44 0 -40 -39 7 -65 l37
-20 -1 -205 c-1 -113 -1 -362 -2 -555 0 -192 -1 -395 -2 -450 -2 -255 0 -300
18 -358 17 -57 17 -62 0 -109 -15 -42 -16 -57 -6 -104 9 -44 9 -62 -2 -87 -20
-48 -19 -1124 1 -1184 11 -35 12 -53 3 -95 -10 -44 -28 -608 -23 -698 1 -14 1
-124 0 -244 -1 -162 -5 -228 -15 -252 -8 -18 -14 -53 -14 -78 0 -35 5 -48 22
-61 23 -15 23 -17 20 -227 -1 -116 -5 -215 -8 -220 -16 -25 -124 -66 -193 -73
-69 -7 -124 -28 -159 -62 -7 -7 -18 -13 -23 -13 -5 0 -38 -17 -73 -39 -40 -24
-100 -48 -162 -64 -109 -29 -134 -47 -143 -104 -5 -31 -13 -42 -43 -58 -29
-16 -42 -17 -65 -9 -37 14 -133 -20 -202 -70 -53 -39 -213 -118 -233 -115 -29
3 -38 -2 -38 -22 0 -19 4 -21 35 -16 26 4 35 2 35 -9 0 -8 -4 -14 -10 -14 -16
0 -42 -72 -30 -84 5 -5 10 -20 10 -32 0 -30 21 -34 193 -34 l148 0 -5 -168
c-2 -92 -7 -190 -11 -218 l-7 -51 32 -7 c18 -3 54 -6 81 -6 l49 0 0 -418 c0
-231 5 -488 10 -573 7 -99 8 -206 2 -299 -5 -80 -5 -155 -1 -167 5 -13 9 -69
10 -126 1 -81 -3 -111 -16 -137 -15 -28 -15 -37 -5 -54 15 -24 21 -198 10
-291 -4 -33 -4 -65 1 -70 4 -6 7 -26 7 -45 -1 -19 2 -74 7 -122 l8 -88 253 0
254 0 0 95 0 95 30 0 c20 0 30 5 30 15 0 8 -4 15 -10 15 -5 0 -10 7 -10 15 0
9 -7 18 -15 21 -20 8 -19 30 1 38 12 5 13 10 5 19 -8 10 -7 17 2 26 9 10 8 15
-5 25 -22 16 -23 42 -3 50 8 3 15 12 15 20 0 7 -7 16 -15 20 -19 7 -19 42 0
50 11 4 14 18 11 60 -5 55 -4 56 30 72 52 25 97 73 87 93 -13 26 -4 817 10
885 11 57 15 62 111 150 54 50 111 105 125 121 14 17 52 55 84 85 168 158 215
212 297 333 l32 47 181 -2 182 -3 0 -240 c1 -132 6 -285 11 -340 8 -67 8 -158
2 -275 -5 -96 -7 -242 -4 -325 6 -162 -7 -607 -19 -641 -4 -14 -1 -27 12 -39
10 -10 16 -29 15 -42 -7 -49 6 -53 198 -53 156 0 183 2 223 20 l46 20 -2 105
c0 57 2 107 6 111 4 4 7 55 7 113 0 116 12 154 48 159 45 7 46 9 39 698 -6
567 -4 654 8 664 8 7 15 21 15 31 0 18 20 19 623 19 l622 0 68 -73 c37 -39
167 -196 290 -347 322 -399 348 -430 364 -430 8 0 13 -6 12 -12 -2 -13 15 -59
32 -88 20 -34 21 -45 11 -124 -17 -123 -25 -525 -11 -542 7 -9 7 -14 1 -14
-12 0 -16 -175 -5 -193 4 -7 8 -23 8 -37 0 -20 7 -27 33 -35 23 -7 32 -15 32
-31 0 -15 8 -24 28 -30 20 -5 23 -8 10 -11 -24 -6 -23 -24 2 -51 25 -27 48
-28 58 -4 5 13 8 11 12 -13 4 -25 10 -30 35 -30 30 0 30 1 38 70 10 98 15 102
16 15 1 -73 2 -75 31 -88 32 -15 50 -9 50 15 0 12 7 14 35 9 25 -5 44 -2 67
11 23 13 32 15 35 6 3 -7 13 -13 23 -13 31 0 40 23 33 81 -9 71 -8 288 1 754
4 209 9 468 10 575 2 107 6 203 10 212 4 9 4 22 0 29 -5 8 -3 9 5 4 9 -5 13
-40 13 -114 0 -58 2 -198 4 -311 2 -113 -2 -356 -9 -540 -15 -382 -6 -592 25
-598 45 -9 57 71 39 276 -6 79 1 111 19 82 4 -7 15 -10 24 -7 10 4 16 1 16 -8
0 -8 9 -15 19 -15 30 0 35 -18 16 -60 -20 -44 -15 -70 14 -70 20 0 28 14 87
150 28 62 31 77 20 88 -11 12 -11 19 2 44 14 29 14 32 -6 47 l-21 16 23 44
c14 27 26 40 30 33 4 -7 20 -12 37 -12 28 0 29 -1 29 -49 0 -46 18 -80 33 -64
4 3 7 36 7 72 0 47 5 74 18 91 19 27 22 148 13 525 -4 175 4 268 28 313 14 26
14 59 0 64 -7 2 -3 21 12 50 21 45 22 48 6 66 -9 10 -17 24 -17 30 0 6 -9 16
-20 22 -25 13 -27 63 -4 120 13 33 14 48 5 85 -7 27 -12 173 -13 389 l-1 346
26 24 c15 14 27 33 27 44 0 10 12 42 26 71 27 53 27 53 10 107 -13 42 -15 72
-10 144 l7 92 43 41 c39 37 45 49 54 107 5 36 10 113 10 172 0 101 -1 108 -22
120 -15 7 -99 15 -228 19 -113 4 -241 10 -285 14 -109 9 -841 24 -1640 34
-824 11 -1525 35 -1673 57 l-44 6 1 322 c1 176 -1 629 -4 1006 -8 1110 -8
2184 -1 2345 12 265 14 1218 3 1240 -7 12 -13 139 -16 315 -5 354 -6 311 11
755 12 311 14 440 6 555 -1 14 -1 57 0 97 l2 72 48 36 c26 20 92 69 148 109
56 40 114 82 130 94 16 13 94 66 174 118 80 52 150 102 156 110 7 8 50 41 96
72 211 142 377 251 423 277 71 41 154 103 197 146 20 21 52 46 70 55 18 9 51
32 73 51 123 105 148 123 182 132 21 6 153 11 293 12 140 0 293 2 339 2 81 2
85 1 104 -26 19 -25 20 -32 9 -72 -7 -25 -12 -109 -13 -188 0 -140 -8 -193
-23 -169 -4 7 -4 17 -1 23 9 14 -24 49 -47 49 -19 0 -118 -78 -118 -92 0 -4
25 -23 55 -43 54 -34 72 -65 38 -65 -122 0 -423 -10 -440 -15 -34 -11 -29 -25
27 -80 28 -28 67 -75 88 -105 20 -30 58 -78 84 -107 63 -68 63 -93 3 -159 -25
-27 -63 -78 -85 -114 -41 -69 -160 -176 -280 -252 -61 -38 -85 -69 -135 -173
-18 -38 -53 -83 -96 -125 -37 -36 -81 -92 -100 -125 -18 -33 -46 -80 -62 -104
-23 -34 -29 -53 -27 -85 1 -22 2 -68 1 -101 -2 -72 19 -175 36 -182 7 -3 13
-13 13 -23 0 -35 13 -52 54 -69 l40 -18 -63 -49 c-72 -56 -162 -172 -186 -242
-9 -26 -21 -57 -25 -69 -5 -12 -45 -47 -88 -77 -60 -42 -90 -72 -121 -119 -37
-57 -41 -70 -41 -126 0 -54 3 -64 20 -68 22 -6 26 -18 10 -28 -5 -3 -10 -13
-10 -20 0 -12 10 -13 46 -8 37 5 51 2 74 -16 37 -27 41 -27 75 9 23 24 31 27
47 19 20 -11 20 -11 -1 -33 -12 -12 -21 -25 -21 -28 0 -17 -89 -139 -132 -180
-40 -39 -48 -53 -48 -83 0 -22 8 -47 20 -62 11 -14 20 -32 20 -39 0 -8 10 -14
23 -14 13 0 32 -7 43 -15 26 -20 26 -20 72 25 32 32 48 40 78 40 30 0 46 8 85
45 26 25 52 45 57 45 4 0 8 -28 8 -62 0 -56 16 -121 46 -184 9 -19 8 -49 -5
-214 -2 -25 -7 -52 -11 -62 -6 -13 4 -20 49 -37 85 -32 137 -60 173 -94 29
-28 35 -30 62 -20 28 11 30 10 35 -15 3 -15 12 -49 20 -77 8 -27 16 -68 19
-90 2 -22 13 -71 24 -110 31 -103 41 -182 48 -360 5 -128 3 -172 -9 -220 -9
-33 -19 -93 -23 -133 -9 -98 -22 -112 -133 -146 l-91 -28 0 -109 c0 -74 -7
-139 -21 -202 -11 -50 -19 -116 -18 -146 3 -48 0 -56 -24 -75 -35 -28 -35 -59
1 -76 l27 -12 -22 -11 c-29 -13 -29 -34 0 -43 12 -4 33 -15 46 -26 35 -27 92
-3 111 46 5 14 13 -7 30 -75 12 -52 30 -102 39 -113 9 -11 19 -47 23 -90 12
-117 19 -150 40 -173 18 -20 19 -26 8 -52 -11 -26 -10 -35 7 -63 33 -56 34
-89 8 -164 -27 -77 -30 -113 -14 -199 13 -71 55 -130 102 -143 21 -6 74 -51
152 -128 105 -105 128 -122 183 -142 196 -72 492 -95 561 -44 58 43 29 113
-72 171 -29 17 -67 44 -85 60 -18 17 -37 31 -42 31 -5 0 -14 8 -19 18 -9 18 0
19 183 20 245 1 246 2 246 57 0 48 -8 55 -150 133 -64 35 -83 41 -126 39 -43
-2 -56 2 -86 28 -19 17 -42 41 -51 55 -9 14 -30 41 -47 60 -17 19 -42 46 -54
60 -12 14 -37 46 -55 73 -18 27 -49 56 -71 67 -22 11 -45 30 -52 43 -18 34
-13 180 9 219 12 23 19 67 24 143 7 129 42 248 91 308 24 31 32 53 38 105 12
101 26 162 49 212 11 25 21 60 21 78 0 38 37 66 100 76 21 3 41 10 45 15 10
17 -26 41 -61 41 -24 0 -42 8 -57 24 -16 17 -38 26 -80 31 -31 4 -60 11 -63
16 -3 5 7 29 21 53 22 37 29 74 51 242 21 171 25 233 23 439 -2 254 2 298 31
293 9 -2 23 2 31 9 8 6 28 13 44 15 24 2 38 15 71 65 l42 62 6 123 c3 68 9
152 12 187 6 65 -25 266 -49 318 -6 13 -7 57 -3 110 3 48 8 124 10 168 5 130
67 227 189 295 31 18 62 40 67 50 16 30 11 80 -10 107 -11 14 -20 34 -20 43 0
10 -7 35 -16 56 -9 22 -20 73 -24 114 -6 50 -28 129 -66 235 -31 88 -58 176
-59 195 -3 58 -36 264 -44 280 -12 22 -40 122 -50 177 -8 40 -6 53 12 84 19
33 25 37 49 32 17 -3 35 0 44 8 10 8 33 14 53 14 112 2 126 5 159 35 18 17 41
30 51 30 10 0 26 9 36 20 10 11 26 20 35 20 10 0 23 6 29 14 12 14 36 21 121
34 44 7 58 21 74 75 3 9 12 17 21 17 12 0 15 -14 15 -69 0 -69 0 -70 40 -101
l40 -32 0 -83 c0 -89 11 -112 49 -100 14 4 25 24 36 63 9 31 21 75 28 97 6 22
21 56 33 75 38 59 94 311 94 424 0 18 -17 51 -46 89 -52 70 -88 137 -99 184
-3 18 -14 39 -23 45 -10 7 -25 25 -35 41 -10 15 -24 27 -32 27 -7 0 -20 8 -27
18 -7 11 -29 24 -49 31 -20 6 -47 23 -59 36 -14 15 -35 25 -50 25 -15 0 -42 7
-60 16 -27 14 -52 16 -149 10 -64 -3 -153 -10 -198 -15 -107 -12 -262 -64
-304 -102 -33 -29 -63 -37 -74 -19 -3 6 -15 10 -25 10 -19 0 -19 9 -15 221 3
181 6 224 19 238 9 9 13 26 10 38 -3 11 -2 23 3 26 4 3 109 6 233 8 211 2 303
9 317 23 3 3 1 12 -6 20 -16 20 -4 323 15 353 19 30 18 43 -5 67 -11 12 -33
58 -51 103 -18 49 -46 98 -69 125 l-39 43 -188 1 c-195 0 -247 6 -301 30 -30
13 -83 16 -148 7z m-1675 -760 c0 -5 -16 -19 -36 -33 -19 -14 -60 -45 -92 -69
-31 -24 -81 -55 -110 -68 -29 -14 -58 -34 -65 -44 -7 -11 -50 -41 -96 -66 -46
-26 -97 -60 -113 -75 -26 -24 -90 -68 -99 -68 -11 0 -2 339 10 374 l13 39 197
-5 c138 -4 216 -2 261 7 76 15 130 18 130 8z m-1423 -9646 c4 -5 -3 -17 -17
-27 -30 -24 -157 -100 -165 -100 -3 0 -5 27 -4 60 2 43 7 64 18 71 18 11 156
8 168 -4z m3504 -87 c16 -9 19 -22 19 -90 0 -47 -4 -80 -10 -80 -5 0 -10 5
-10 10 0 6 -10 10 -23 10 -19 0 -30 13 -57 66 -19 36 -38 68 -42 70 -36 23 82
35 123 14z"/>
</g>
</svg>
